<svg width="194" height="181" viewBox="0 0 194 181" fill="none" xmlns="http://www.w3.org/2000/svg">
<g clip-path="url(#clip0_1617_12371)">
<path d="M27.068 177.139C26.5157 177.139 25.9634 177.086 25.4111 176.957C23.1352 176.427 21.2307 174.542 20.6688 172.265C20.1118 169.993 20.9212 167.435 22.6876 165.903C23.2638 165.402 23.9827 164.968 24.8731 164.571L24.9207 164.552C26.8919 163.665 28.7202 163.426 29.9106 163.383C30.8628 163.345 31.6532 163.416 32.4055 163.865C32.6578 164.013 33.4244 164.471 33.7101 165.368C33.8196 165.712 33.8148 166.027 33.8101 166.595C33.8053 166.972 33.7815 167.201 33.7577 167.387C33.7387 167.559 33.7291 167.659 33.7339 167.827C33.7339 167.879 33.772 168.371 33.9862 168.805C34.1386 169.11 34.31 169.244 34.8338 169.621C35.2004 169.884 35.7003 170.242 36.3669 170.829C36.6383 171.067 36.9811 171.363 37.1763 171.802C37.6096 172.771 37.1002 173.788 36.5288 174.365C35.6765 175.229 34.5052 175.602 33.372 175.912C32.4674 176.16 31.5342 176.399 30.6105 176.618C29.463 176.89 28.2679 177.143 27.0633 177.143L27.068 177.139ZM30.2962 164.6C30.1915 164.6 30.0772 164.6 29.9582 164.605C28.8774 164.643 27.2157 164.858 25.4254 165.664L25.373 165.688C24.5922 166.032 23.978 166.404 23.4923 166.829C22.0639 168.065 21.4068 170.132 21.8592 171.969C22.3115 173.807 23.8494 175.33 25.6873 175.759C27.1776 176.108 28.7964 175.783 30.3296 175.42C31.2437 175.206 32.1579 174.972 33.053 174.723C34.0624 174.447 35.0195 174.146 35.6575 173.502C35.967 173.187 36.2288 172.676 36.0574 172.304C35.9717 172.113 35.7622 171.926 35.5622 171.75C34.9385 171.206 34.4862 170.876 34.1243 170.614C33.5815 170.223 33.1911 169.941 32.8959 169.344C32.5864 168.719 32.5293 168.07 32.5198 167.889C32.5055 167.617 32.5245 167.435 32.5483 167.244C32.5674 167.077 32.5864 166.886 32.5912 166.571C32.5959 166.084 32.5959 165.884 32.5531 165.736C32.4103 165.283 31.9579 165.015 31.7913 164.915C31.4151 164.691 30.9914 164.6 30.3057 164.6H30.2962Z" fill="#408F95"/>
<path d="M166.965 181C162.79 181 157.352 180.356 148.787 179.334C147.834 179.22 147.491 179.172 147.196 179.134C146.92 179.096 146.682 179.062 146.006 178.986C144.825 178.852 143.459 178.709 141.973 178.556C135.331 177.869 126.232 176.929 122.18 175.277C120.742 174.69 119.866 173.993 119.414 173.082C119.262 172.771 119.195 172.538 118.705 170.294C118.509 169.392 118.409 168.944 118.39 168.848C118.067 167.158 118.49 164.328 120.171 161.798C121.047 160.481 121.771 160.018 122.471 159.569C123.166 159.126 123.818 158.706 124.756 157.35C124.923 157.107 125.075 156.873 125.223 156.644C125.761 155.804 126.318 154.935 127.442 154.109C128.113 153.613 128.589 153.422 128.97 153.269C129.26 153.15 129.475 153.069 129.727 152.873C130.594 152.21 130.684 151.269 130.77 149.661C130.817 148.735 130.874 147.685 131.189 146.587C131.598 145.155 132.946 144.014 134.983 142.287C136.283 141.189 137.897 139.819 139.764 137.972C141.445 136.301 143.354 134.411 145.801 133.509C149.944 131.977 154.191 133.6 158.3 135.165C159.428 135.595 160.595 136.039 161.723 136.402C165.042 137.466 168.594 137.905 172.031 138.335C175.183 138.726 178.445 139.132 181.568 140.015C184.715 140.902 186.834 142.12 188.239 143.843C189.672 145.599 190.281 147.842 190.819 149.818L192.9 157.445C193.872 161.011 194.686 164.753 193.081 167.927C192.372 169.335 191.486 170.247 190.791 170.881C181.868 179.086 171.55 180.666 171.117 180.728C169.836 180.914 168.479 181 166.956 181H166.965ZM149.348 134.13C148.291 134.13 147.253 134.287 146.239 134.664C144.04 135.476 142.235 137.265 140.64 138.845C138.74 140.731 137.107 142.115 135.793 143.227C133.926 144.811 132.689 145.857 132.384 146.926C132.108 147.89 132.06 148.826 132.012 149.728C131.927 151.312 131.851 152.806 130.489 153.851C130.098 154.152 129.765 154.286 129.441 154.415C129.089 154.558 128.727 154.701 128.184 155.102C127.242 155.799 126.789 156.5 126.27 157.317C126.113 157.56 125.956 157.808 125.78 158.061C124.699 159.622 123.875 160.147 123.147 160.615C122.499 161.03 121.942 161.388 121.209 162.49C119.728 164.715 119.343 167.23 119.609 168.624C119.628 168.719 119.723 169.158 119.919 170.041C120.376 172.132 120.447 172.375 120.528 172.547C120.723 172.938 121.152 173.535 122.652 174.146C126.542 175.731 135.536 176.661 142.106 177.339C143.592 177.492 144.968 177.635 146.154 177.773C146.844 177.855 147.087 177.888 147.368 177.926C147.658 177.964 147.996 178.012 148.939 178.127C160.518 179.506 166.332 180.193 170.96 179.525C171.065 179.511 181.349 177.931 189.982 169.989C190.596 169.421 191.386 168.614 192.005 167.383C193.414 164.595 192.681 161.25 191.734 157.78L189.653 150.152C189.148 148.291 188.572 146.186 187.306 144.63C186.068 143.112 184.144 142.024 181.254 141.208C178.221 140.349 175.007 139.953 171.898 139.566C168.408 139.132 164.794 138.683 161.366 137.585C160.209 137.213 159.023 136.764 157.881 136.325C155.052 135.246 152.153 134.144 149.353 134.144L149.348 134.13Z" fill="#408F95"/>
<path d="M51.9316 167.75C49.7938 167.75 47.675 167.383 46.1847 165.922C45.9609 165.702 45.7657 165.478 45.561 165.235C45.1563 164.757 44.6944 164.218 43.8374 163.564C43.0042 162.929 42.4042 162.643 41.871 162.395C41.2329 162.094 40.633 161.808 39.9712 161.049C39.4808 160.486 37.9429 158.495 38.619 156.328C38.8999 155.431 39.4903 154.71 40.0331 154.119C41.99 151.99 44.4516 150.334 47.1608 149.331C47.2989 149.279 47.4417 149.226 47.5845 149.178C48.3844 148.892 49.1415 148.62 49.6843 148.105C50.0652 147.747 50.3413 147.265 50.6318 146.749C50.708 146.615 50.7841 146.482 50.8603 146.353C53.0172 142.735 56.9548 140.239 61.1448 139.847C65.33 139.451 69.6675 141.165 72.4577 144.32C73.2576 145.131 73.8432 146.076 74.167 147.097C74.5384 148.272 74.4289 149.121 74.3432 149.799C74.2765 150.329 74.2241 150.715 74.386 151.169C74.6812 151.999 75.3288 152.281 77.1428 152.978C78.0427 153.321 79.1616 153.746 80.5234 154.4C82.4469 155.326 85.1228 156.863 86.2131 159.56C86.9607 161.407 86.675 163.493 85.5132 164.748C83.8991 166.495 81.1899 166.361 79.3949 166.266C73.6575 165.975 67.5059 166.442 55.7883 167.497L55.3217 167.54C54.2504 167.64 53.0839 167.745 51.9269 167.745L51.9316 167.75ZM62.3494 141.022C61.9875 141.022 61.6257 141.041 61.2638 141.074C57.4595 141.432 53.879 143.699 51.9173 146.988C51.8412 147.112 51.7697 147.241 51.6983 147.365C51.3746 147.928 51.0413 148.515 50.527 148.997C49.7938 149.689 48.8796 150.019 47.9988 150.334C47.8607 150.381 47.7226 150.434 47.5893 150.482C45.0658 151.422 42.7661 152.963 40.9377 154.949C40.4854 155.441 39.9998 156.028 39.7903 156.696C39.2903 158.29 40.6187 159.922 40.8901 160.233C41.3901 160.805 41.79 160.996 42.3947 161.283C42.9518 161.545 43.6469 161.875 44.5801 162.591C45.5419 163.326 46.0704 163.946 46.4942 164.442C46.6894 164.672 46.8561 164.867 47.0418 165.049C48.9368 166.905 52.2744 166.595 55.2169 166.323L55.6883 166.28C67.4678 165.216 73.6528 164.748 79.4711 165.044C81.5423 165.154 83.4944 165.144 84.6276 163.917C85.6037 162.858 85.5656 161.202 85.0895 160.023C84.38 158.271 82.7659 156.839 80.0044 155.512C78.6902 154.882 77.5951 154.462 76.7191 154.128C74.9288 153.446 73.7432 152.992 73.2433 151.589C72.9814 150.854 73.0624 150.238 73.1385 149.646C73.2195 149.031 73.3004 148.391 73.01 147.475C72.7434 146.639 72.2625 145.861 71.5768 145.164C69.2628 142.549 65.8156 141.026 62.3589 141.026L62.3494 141.022Z" fill="#408F95"/>
<path d="M147.277 124.56C147.101 124.56 146.925 124.545 146.758 124.512C145.435 124.273 144.406 123.357 143.578 122.622L136.307 116.159C135.798 115.706 135.217 115.19 134.574 115.038C133.679 114.823 132.884 115.133 132.541 115.267C131.798 115.558 130.579 116.021 128.951 116.641C126.227 117.677 122.499 119.099 118.005 120.841C117.69 120.961 117.333 120.808 117.21 120.488C117.086 120.173 117.243 119.815 117.562 119.691C122.061 117.949 125.789 116.527 128.518 115.486C130.141 114.866 131.36 114.403 132.089 114.121C132.508 113.959 133.598 113.534 134.86 113.835C135.802 114.059 136.531 114.708 137.121 115.233L144.392 121.696C145.297 122.502 146.063 123.133 146.977 123.295C147.463 123.381 148.025 123.252 148.415 122.961C148.596 122.822 148.825 122.588 148.858 122.25C148.944 121.462 148.087 120.765 147.153 120.126C144.335 118.207 141.768 115.93 139.516 113.362C139.373 113.2 139.045 112.823 139.116 112.317C139.212 111.673 139.888 111.434 140.111 111.353C141.178 110.971 146.711 110.298 149.039 110.026C149.377 109.988 149.682 110.226 149.72 110.565C149.758 110.904 149.52 111.21 149.182 111.248C145.673 111.658 141.302 112.236 140.53 112.508C140.492 112.522 140.459 112.532 140.43 112.546C140.43 112.546 140.43 112.546 140.435 112.551C142.616 115.042 145.106 117.247 147.839 119.109C148.682 119.682 150.253 120.751 150.077 122.383C150.01 122.994 149.682 123.548 149.148 123.944C148.629 124.335 147.949 124.55 147.282 124.55L147.277 124.56Z" fill="#408F95"/>
<path d="M170.774 115.801C170.117 115.801 169.27 115.596 168.179 115.047C163.08 112.47 157.371 110.942 151.667 110.623C151.329 110.604 151.072 110.312 151.091 109.974C151.11 109.635 151.4 109.363 151.738 109.396C157.609 109.725 163.485 111.3 168.736 113.949C169.741 114.455 171.05 114.918 171.588 114.241C171.984 113.744 171.698 112.856 171.56 112.498C170.784 110.503 169.041 108.761 166.66 107.597C164.456 106.518 161.956 106.022 159.59 105.601C158.666 105.439 157.623 105.253 156.795 104.585C155.876 103.85 155.4 102.375 156.147 101.349C156.19 101.292 156.247 101.239 156.309 101.196C157.557 100.385 158.857 99.683 160.18 99.1055C160.671 98.8907 161.109 98.7141 161.504 98.5614C162.751 98.065 163.308 97.8264 163.542 97.2631C163.761 96.7333 163.685 96.0604 163.361 95.6928C163.032 95.3206 162.399 95.1821 161.437 95.2681C159.014 95.4876 157.209 96.5568 153.672 98.7714C153.138 99.1055 151.619 100.055 149.334 101.478C149.048 101.654 148.667 101.568 148.491 101.282C148.31 100.996 148.401 100.614 148.686 100.437C150.972 99.0148 152.491 98.065 153.024 97.7309C156.628 95.4781 158.633 94.2896 161.328 94.0462C162.709 93.9221 163.675 94.1941 164.28 94.8814C164.913 95.5974 165.075 96.7715 164.675 97.7357C164.232 98.8 163.28 99.1771 161.956 99.7021C161.575 99.8549 161.147 100.022 160.675 100.232C159.457 100.766 158.252 101.416 157.09 102.16C156.857 102.599 157.128 103.277 157.566 103.625C158.152 104.093 158.995 104.246 159.809 104.389C162.266 104.824 164.861 105.344 167.208 106.494C169.87 107.797 171.822 109.768 172.712 112.055C173.179 113.248 173.122 114.298 172.56 115.009C172.226 115.429 171.679 115.806 170.788 115.806L170.774 115.801Z" fill="#408F95"/>
<path d="M111.948 114.298C111.572 114.298 111.205 114.265 110.844 114.203C110.62 114.164 110.434 114.002 110.367 113.783C110.296 113.563 110.353 113.324 110.515 113.167L113.934 109.692C114.172 109.449 114.557 109.449 114.8 109.687C115.043 109.926 115.043 110.313 114.805 110.556L112.348 113.052C113.519 112.971 114.81 112.522 116.248 111.702C116.871 111.348 117.49 110.943 118.095 110.556C119.128 109.888 120.2 109.196 121.361 108.68C123.771 107.606 125.737 107.253 126.794 107.062C130.56 106.38 137.369 104.418 147.025 101.234C147.349 101.129 147.691 101.306 147.796 101.626C147.901 101.946 147.73 102.294 147.406 102.399C137.693 105.606 130.832 107.582 127.008 108.27C125.932 108.465 124.132 108.79 121.857 109.802C120.78 110.279 119.8 110.914 118.757 111.587C118.143 111.983 117.505 112.394 116.852 112.766C115.057 113.787 113.443 114.293 111.948 114.293V114.298Z" fill="#408F95"/>
<path d="M115.738 108.957C115.633 108.957 115.524 108.928 115.429 108.871C115.138 108.699 115.038 108.322 115.21 108.031C116.695 105.501 118.766 103.301 121.204 101.669C121.628 101.382 122.066 101.115 122.499 100.852C122.975 100.561 123.471 100.256 123.932 99.9361C126.051 98.4803 127.799 96.5043 128.989 94.2229C129.056 94.094 129.165 93.9985 129.294 93.9413L129.351 93.9174C131.141 93.1633 133.845 92.0273 135.793 91.9414C137.083 91.8889 138.373 91.9891 139.621 92.0846C140.349 92.1418 141.102 92.1991 141.835 92.2278C146.687 92.3996 151.658 91.1347 155.838 88.6624C156.128 88.4905 156.505 88.586 156.676 88.8819C156.847 89.1731 156.752 89.5501 156.457 89.722C152.077 92.3089 146.868 93.6358 141.787 93.4544C141.026 93.4258 140.264 93.3685 139.526 93.3112C138.316 93.2158 137.064 93.1203 135.845 93.1728C134.169 93.2444 131.589 94.3135 129.97 94.9913C128.689 97.3682 126.846 99.4254 124.623 100.953C124.132 101.292 123.628 101.602 123.133 101.903C122.709 102.16 122.29 102.418 121.88 102.695C119.6 104.222 117.657 106.284 116.262 108.656C116.148 108.852 115.943 108.957 115.733 108.957H115.738Z" fill="#408F95"/>
<path d="M157.562 88.0612C157.428 88.0612 157.295 88.0182 157.181 87.9276C156.914 87.7175 156.871 87.3309 157.085 87.0637C158.709 85.0208 160.195 82.8348 161.504 80.5677C162.028 79.656 162.609 78.5917 162.837 77.4796C163.256 75.4701 162.475 73.2412 160.895 71.9334C160.642 71.7234 160.542 71.7043 160.509 71.7138C160.471 71.7138 160.328 71.7759 160.099 72.3677C158.833 75.6324 156.995 78.5964 154.629 81.1691C154.21 81.6273 153.71 82.1427 153.072 82.5007C152.315 82.9207 151.467 83.0639 150.72 83.188L143.816 84.3287C143.235 84.4242 142.511 84.5435 141.802 84.3478C141.035 84.1331 140.264 83.4314 140.278 82.5103C140.288 81.7657 140.807 81.1881 141.116 80.8445L146.144 75.2745C148.563 72.5968 151.062 69.8237 154.029 67.6043C154.843 66.9982 155.69 66.4302 156.509 65.8813C157.019 65.5424 157.524 65.2035 158.028 64.8503C160.495 63.1273 161.223 62.2538 161.771 61.1561C162.247 60.2015 162.304 59.4998 162.413 58.0966C162.461 57.5238 162.399 57.3854 162.361 57.352C162.323 57.3281 162.104 57.2804 161.647 57.4188C160.333 57.815 159.147 59.0464 158.004 60.2349C157.624 60.631 157.224 61.0463 156.828 61.4186C155.729 62.4543 154.462 63.3612 153.062 64.1057C152.762 64.2632 152.391 64.1487 152.234 63.8528C152.077 63.5521 152.186 63.1798 152.486 63.0223C153.791 62.3254 154.971 61.4854 155.99 60.526C156.367 60.1728 156.733 59.791 157.124 59.3853C158.376 58.0823 159.671 56.7363 161.295 56.2495C162.109 56.0013 162.732 56.0633 163.156 56.4213C163.737 56.9177 163.67 57.7529 163.637 58.2016C163.518 59.6621 163.447 60.5403 162.866 61.7097C162.242 62.965 161.394 64.0007 158.728 65.8622C158.219 66.2154 157.704 66.559 157.19 66.9075C156.381 67.4468 155.548 68.0052 154.762 68.5923C151.891 70.7449 149.429 73.4655 147.053 76.1049L142.025 81.675C141.764 81.9661 141.511 82.2716 141.506 82.5293C141.506 82.7823 141.787 83.0687 142.135 83.1689C142.583 83.293 143.106 83.2071 143.616 83.1212L150.52 81.9805C151.201 81.8659 151.905 81.7514 152.477 81.4316C152.957 81.1643 153.376 80.7299 153.729 80.3433C155.957 77.9139 157.766 75.0024 158.957 71.9286C159.114 71.5277 159.476 70.5922 160.38 70.4967C160.933 70.4394 161.385 70.7497 161.675 70.9931C163.599 72.5825 164.546 75.2935 164.037 77.7421C163.766 79.0308 163.137 80.2001 162.566 81.1929C161.228 83.5126 159.709 85.7511 158.043 87.8416C157.923 87.9944 157.743 88.0707 157.562 88.0707V88.0612Z" fill="#408F95"/>
<path d="M150.958 64.5541C150.901 64.5541 150.843 64.5446 150.786 64.5303C149.329 64.1102 148.296 62.5877 148.029 60.4446C147.468 55.9914 150.886 52.006 151.281 51.5669C151.624 51.1851 152.191 50.598 153.324 49.4334L153.648 49.0993C154.962 47.7486 155.562 47.1328 156.005 46.0685C156.333 45.2762 156.414 44.6986 156.367 44.4982C156.224 44.4695 155.914 44.4409 155.662 44.4218C155.571 44.4123 155.471 44.4027 155.367 44.3884C155.195 44.3693 154.876 44.3311 154.781 44.3502C153.791 44.6986 152.848 45.2762 152.077 46.0064C151.829 46.2403 151.443 46.2307 151.21 45.9826C150.977 45.7344 150.991 45.3478 151.234 45.1139C152.134 44.2643 153.224 43.5961 154.391 43.1856C154.71 43.0711 155.119 43.1188 155.51 43.1665C155.6 43.1761 155.686 43.1856 155.762 43.1952C156.476 43.2572 156.871 43.2906 157.166 43.5436C157.9 44.1784 157.552 45.5196 157.128 46.5362C156.595 47.8201 155.857 48.5743 154.519 49.9537L154.195 50.2878C153.076 51.438 152.515 52.0203 152.191 52.3831C152.048 52.5406 148.739 56.3112 149.244 60.2871C149.32 60.898 149.686 62.9313 151.124 63.3466C151.448 63.442 151.639 63.7809 151.543 64.1055C151.467 64.3775 151.22 64.5494 150.953 64.5494L150.958 64.5541Z" fill="#408F95"/>
<path d="M140.064 67.3318C139.983 67.3318 139.897 67.3128 139.816 67.2793C139.507 67.1409 139.369 66.7782 139.502 66.4679C139.968 65.4036 140.354 64.2962 140.645 63.1746C140.987 61.8429 141.206 60.4683 141.292 59.0937C141.292 59.0364 141.306 58.9839 141.325 58.9314C141.802 57.5473 142.387 56.1918 143.068 54.9031C144.658 51.8913 146.777 49.1755 149.363 46.8415C149.615 46.6172 150.001 46.6363 150.229 46.8893C150.458 47.1422 150.434 47.5288 150.182 47.758C147.701 49.9965 145.673 52.593 144.149 55.4806C143.511 56.6882 142.959 57.9625 142.506 59.256C142.411 60.6831 142.187 62.1055 141.825 63.4848C141.516 64.6733 141.111 65.8427 140.616 66.9643C140.516 67.1934 140.292 67.3318 140.054 67.3318H140.064Z" fill="#408F95"/>
<path d="M123.899 89.1159C123.709 89.1159 123.518 89.0252 123.399 88.8582C123.204 88.5813 123.271 88.1995 123.547 88.0038C126.88 85.6364 129.855 82.8061 132.388 79.5891C134.96 76.3244 137.04 72.7065 138.569 68.8404C138.692 68.5254 139.05 68.3679 139.364 68.4967C139.678 68.6208 139.83 68.9788 139.707 69.2938C138.131 73.2745 135.993 76.9926 133.35 80.3528C130.746 83.6604 127.684 86.5719 124.256 89.0109C124.147 89.0873 124.023 89.1255 123.904 89.1255L123.899 89.1159Z" fill="#408F95"/>
<path d="M105.339 105.091C105.263 105.091 105.187 105.091 105.111 105.076C104.268 104.967 103.554 104.27 102.982 103C102.844 102.69 102.983 102.327 103.292 102.189C103.601 102.05 103.963 102.189 104.101 102.499C104.473 103.325 104.882 103.807 105.263 103.859C105.53 103.898 106.111 103.75 107.049 102.404C108.691 100.055 113.524 95.8073 121.847 89.3925C122.118 89.1873 122.499 89.235 122.709 89.507C122.913 89.7743 122.866 90.1609 122.594 90.3709C114.486 96.6235 109.601 100.9 108.072 103.091C107.706 103.616 106.668 105.1 105.339 105.1V105.091Z" fill="#408F95"/>
<path d="M103.073 101.693C102.764 101.693 102.497 101.459 102.464 101.144C102.268 99.2729 102.916 97.3398 104.197 95.9604L104.359 95.7886C104.573 95.5691 104.773 95.359 104.854 95.1395C105.025 94.6908 104.754 94.2231 104.297 93.4976C103.964 92.9678 103.583 92.3664 103.468 91.6839C103.278 90.5431 103.854 89.8033 104.654 88.7819C104.921 88.4383 105.225 88.0516 105.549 87.5887C107.139 85.3215 107.934 83.336 108.853 81.045C109.391 79.7038 109.663 78.773 109.877 78.0237C110.21 76.8734 110.448 76.0477 111.358 74.8162C112.477 73.3032 113.805 72.0623 113.862 72.0097C114.324 71.5802 114.748 71.227 115.124 70.9167C115.953 70.2294 116.495 69.776 116.691 69.1508L116.714 69.0792C116.791 68.8214 116.995 68.1437 117.357 67.2893C117.467 67.0268 117.562 66.8168 117.624 66.6879C117.767 66.3824 118.133 66.2488 118.438 66.392C118.743 66.5352 118.876 66.9027 118.733 67.2082C118.676 67.3275 118.586 67.5232 118.486 67.7666C118.152 68.5637 117.957 69.1985 117.886 69.4371L117.862 69.523C117.557 70.492 116.829 71.0981 115.91 71.8666C115.548 72.1673 115.138 72.5109 114.7 72.9166C114.686 72.9262 113.396 74.1337 112.348 75.5513C111.572 76.6061 111.377 77.2695 111.058 78.3721C110.834 79.1453 110.553 80.1047 109.996 81.5032C109.087 83.7703 108.225 85.9134 106.554 88.2998C106.211 88.7915 105.897 89.1924 105.62 89.5456C104.849 90.5384 104.582 90.9106 104.678 91.4882C104.749 91.9225 105.03 92.3712 105.33 92.8437C105.83 93.636 106.397 94.5333 106.001 95.5786C105.83 96.032 105.516 96.3566 105.24 96.643L105.092 96.8005C104.054 97.9173 103.525 99.4972 103.683 101.015C103.716 101.354 103.473 101.655 103.135 101.688C103.111 101.688 103.092 101.688 103.068 101.688L103.073 101.693Z" fill="#408F95"/>
<path d="M120.033 66.8356C119.762 66.8356 119.514 66.6542 119.443 66.3821C119.352 66.0528 119.547 65.7187 119.876 65.628C121.595 65.1603 123.194 64.7164 124.699 64.3011C126.266 63.8668 127.722 63.4659 129.099 63.0936C129.641 62.9456 131.298 62.497 132.174 61.256C132.55 60.7214 132.727 60.0484 132.655 59.3993C132.065 59.5425 130.046 60.2584 128.822 60.688C128.189 60.9123 127.67 61.0937 127.437 61.1701C126.227 61.5615 124.889 61.6378 123.452 61.3849C123.118 61.3276 122.895 61.0078 122.952 60.6737C123.009 60.3396 123.333 60.1153 123.661 60.1725C124.899 60.3873 126.037 60.33 127.056 60.0007C127.284 59.9243 127.794 59.7477 128.413 59.5282C130.322 58.8552 131.946 58.2872 132.479 58.1774C132.903 58.0915 133.25 58.1631 133.503 58.3827C133.784 58.6261 133.836 58.9745 133.855 59.1082C134.003 60.1009 133.755 61.1462 133.174 61.9672C132.041 63.5709 130.065 64.1054 129.418 64.282C128.046 64.6543 126.585 65.0553 125.023 65.4896C123.518 65.9048 121.914 66.3487 120.195 66.8165C120.142 66.8308 120.085 66.8403 120.033 66.8403V66.8356Z" fill="#408F95"/>
<path d="M111.205 63.0887C111.053 63.0887 110.901 63.0314 110.782 62.9169C110.539 62.683 110.529 62.2916 110.767 62.0482C115.681 56.9316 117.733 52.9366 116.867 50.1683L116.79 49.9297C116.538 49.1421 116.014 47.4955 115.548 45.171C115.11 43.0089 115.352 41.1426 116.243 39.7776C116.8 38.9137 117.828 38.2168 118.857 38.5939C119.947 38.9948 120.185 40.3122 120.29 40.8706C120.666 42.9659 121.047 45.0565 121.433 47.147C121.561 47.8582 121.756 48.2496 122.009 48.3164C122.261 48.3785 122.628 48.1303 122.885 47.9346C125.851 45.6817 127.903 42.3693 129.884 39.1619L130.355 38.403C130.612 37.9877 130.903 37.52 131.303 37.119C131.708 36.7133 132.169 36.4222 132.612 36.1406L135.736 34.1741C137.116 33.3055 138.545 32.4034 140.116 31.7877C141.535 31.2292 142.659 31.2006 143.549 31.7017C144.063 31.9929 144.425 32.4225 144.777 32.8711C145.587 33.9069 146.382 35.1526 146.12 36.532C145.825 38.0832 144.311 38.9853 143.311 39.5819C140.821 41.0615 138.402 42.7273 136.121 44.5267C135.402 45.0947 134.622 45.7724 134.512 46.5981C134.502 46.6745 134.498 46.7556 134.488 46.832C134.46 47.1804 134.426 47.6577 134.079 48.03C133.864 48.2639 133.603 48.3737 133.393 48.4644C131.927 49.0896 130.603 50.0299 129.546 51.1849C128.979 51.8054 128.47 52.5071 127.975 53.1848C127.194 54.254 126.646 55.0033 126.251 55.5331C125.761 56.2013 125.513 56.5354 125.408 56.6977C124.937 57.4471 124.499 58.2394 124.104 59.0508C123.956 59.3562 123.59 59.4803 123.285 59.3324C122.98 59.1844 122.856 58.8169 123.004 58.5114C123.418 57.6618 123.88 56.8314 124.37 56.0438C124.499 55.8434 124.723 55.5379 125.266 54.7981C125.656 54.2683 126.204 53.5237 126.984 52.4546C127.499 51.7482 128.032 51.0179 128.646 50.3497C129.822 49.061 131.293 48.0205 132.893 47.3379C133.017 47.2854 133.141 47.2329 133.179 47.19C133.236 47.1279 133.25 46.9084 133.265 46.7318C133.274 46.6316 133.279 46.5265 133.293 46.4311C133.455 45.2092 134.383 44.331 135.36 43.5578C137.683 41.725 140.145 40.0306 142.682 38.5223C143.758 37.8827 144.739 37.2288 144.915 36.2981C145.087 35.4008 144.454 34.4414 143.811 33.6252C143.525 33.2625 143.263 32.9475 142.944 32.7661C142.397 32.4559 141.616 32.5084 140.559 32.9236C139.097 33.5012 137.716 34.3698 136.383 35.2099L133.26 37.1763C132.874 37.4197 132.469 37.6727 132.165 37.9782C131.865 38.2836 131.622 38.6703 131.389 39.0473L130.922 39.8014C128.879 43.1043 126.765 46.5218 123.618 48.9082C123.123 49.2853 122.456 49.6958 121.699 49.5001C120.557 49.2089 120.314 47.8677 120.219 47.3618C119.838 45.2713 119.457 43.1759 119.076 41.0806C118.976 40.5317 118.814 39.8778 118.428 39.7346C118.052 39.5962 117.552 39.9924 117.266 40.4363C116.367 41.8156 116.486 43.6341 116.748 44.9181C117.205 47.1757 117.695 48.7173 117.957 49.5431L118.033 49.7865C119.057 53.0607 116.971 57.3468 111.648 62.8882C111.529 63.0123 111.367 63.0744 111.205 63.0744V63.0887Z" fill="#408F95"/>
<path d="M93.2172 91.846C92.9554 91.846 92.7125 91.6742 92.6316 91.4069C92.5316 91.0824 92.7173 90.7387 93.0411 90.6385C94.3266 90.2471 95.2789 89.6171 95.8693 88.758C96.3216 88.0993 96.4026 87.4692 96.5073 86.6722C96.574 86.1662 96.6454 85.5935 96.8311 84.9682C97.3977 83.0781 98.5166 81.4553 99.6022 79.885L100.007 79.2932C101.873 76.5631 103.545 73.6754 104.973 70.7019C105.435 69.7425 105.849 68.7974 105.849 67.8333C105.849 66.368 104.878 65.0268 103.94 63.7333L103.74 63.4565C102.687 61.9912 101.55 60.0486 102.097 58.0297C102.483 56.6073 103.597 55.6098 104.706 54.7125C105.573 54.0108 106.949 53.3999 107.958 53.9822C108.753 54.4404 109.011 55.4618 108.987 56.1921C108.963 57.0083 108.596 57.4569 108.296 57.8197C108.077 58.0869 107.901 58.3017 107.83 58.6788C107.687 59.452 108.134 60.2491 108.953 61.6953C109.22 62.1726 109.525 62.6356 109.853 63.0747C110.058 63.3467 110.001 63.7333 109.729 63.9338C109.458 64.139 109.072 64.0818 108.872 63.8097C108.511 63.3276 108.182 62.8217 107.887 62.3015C106.992 60.7121 106.397 59.6668 106.625 58.4497C106.754 57.7672 107.082 57.3615 107.344 57.0417C107.592 56.7362 107.744 56.5501 107.754 56.1587C107.768 55.7434 107.62 55.2136 107.335 55.0466C106.935 54.8127 106.068 55.1802 105.468 55.6671C104.516 56.4403 103.564 57.2803 103.273 58.3495C102.864 59.8673 103.835 61.4901 104.73 62.7358L104.925 63.0079C105.925 64.3968 107.063 65.9671 107.068 67.8285C107.068 69.0552 106.577 70.1816 106.068 71.2364C104.611 74.2673 102.907 77.2122 101.007 79.99L100.597 80.5866C99.5688 82.0758 98.5023 83.6175 97.9928 85.3214C97.8357 85.8512 97.7691 86.3476 97.7119 86.8249C97.6024 87.6697 97.4929 88.5479 96.8692 89.45C96.1169 90.543 94.9456 91.3353 93.3886 91.8126C93.3315 91.8317 93.2696 91.8413 93.2125 91.8413L93.2172 91.846Z" fill="#408F95"/>
<path d="M88.5606 89.97C88.5225 89.97 88.4844 89.97 88.4463 89.9605C88.113 89.8984 87.894 89.5739 87.9607 89.2445C88.9558 83.9895 88.9701 78.6629 87.994 73.4031C87.9369 73.0929 87.875 72.7779 87.8131 72.4676C87.3655 70.167 86.9037 67.7901 87.6131 65.4943C88.2368 63.4801 89.6557 61.9146 91.0222 60.4016C91.3364 60.0579 91.6459 59.7095 91.9507 59.3611C94.5408 56.3637 96.4691 52.7935 98.3308 49.3379C104.059 38.7324 111.186 25.5304 110.482 11.9227C110.448 11.2592 110.377 10.5194 109.953 10.109C109.682 9.84167 109.325 9.79871 109.077 9.80826C108.553 9.82735 107.987 10.1042 107.634 10.5051C106.93 11.3117 106.716 12.5098 106.53 13.5693C106.473 13.9035 106.154 14.123 105.82 14.0657C105.487 14.0085 105.263 13.6887 105.325 13.3546C105.53 12.1995 105.787 10.7676 106.716 9.69848C107.287 9.04459 108.172 8.61502 109.03 8.58161C109.725 8.54343 110.353 8.78207 110.81 9.22596C111.515 9.91327 111.658 10.8965 111.705 11.8559C112.429 25.812 105.211 39.181 99.4116 49.9202C97.5166 53.4331 95.555 57.0605 92.8791 60.1629C92.5696 60.5209 92.2506 60.8693 91.9316 61.2225C90.5937 62.7022 89.3319 64.0959 88.7844 65.8523C88.1654 67.8569 88.5987 70.0764 89.0177 72.229C89.0796 72.5488 89.1415 72.8638 89.1986 73.1788C90.1985 78.5865 90.189 84.0707 89.1605 89.4737C89.1034 89.7696 88.8463 89.9748 88.5606 89.9748V89.97Z" fill="#408F95"/>
<path d="M96.3214 34.3224C95.9977 34.3224 95.6644 34.2699 95.3216 34.1649C95.1978 34.1267 95.0835 34.0456 95.0073 33.9406L93.4694 31.8452C93.2694 31.5732 93.3266 31.1866 93.598 30.9861C93.8694 30.7856 94.255 30.8429 94.455 31.115L95.8643 33.0385C96.231 33.1196 96.5595 33.1101 96.8452 32.9955C97.1356 32.881 97.3737 32.6566 98.1117 31.6018L98.3545 31.2534C98.8259 30.5852 99.083 30.2177 99.2973 29.8215C100.497 27.5687 101.74 25.2347 102.63 22.8148C103.116 21.4975 103.511 20.1181 103.892 18.7864L104.887 15.3069C104.982 14.9824 105.32 14.7915 105.644 14.8869C105.968 14.9824 106.158 15.3213 106.063 15.6458L105.068 19.1253C104.682 20.4761 104.282 21.8745 103.778 23.2396C102.854 25.7406 101.597 28.108 100.378 30.399C100.13 30.862 99.84 31.2773 99.3544 31.9646L99.1116 32.3082C98.2974 33.468 97.9212 33.8928 97.288 34.141C96.9833 34.2604 96.6547 34.3176 96.3167 34.3176L96.3214 34.3224Z" fill="#408F95"/>
<path d="M83.7278 32.6899C82.4042 32.6899 81.19 30.7043 79.7664 28.1317L79.5236 27.6974C78.5094 25.8836 78.0523 25.287 77.5667 24.657C77.0524 23.984 76.5144 23.2919 75.3431 21.2157C74.4908 19.717 73.81 18.2899 73.1482 16.9105C72.2768 15.092 71.4531 13.3737 70.3199 11.6173C69.4677 10.2952 68.4773 9.01601 67.387 7.80845C67.1584 7.55548 67.1775 7.16887 67.4298 6.93977C67.6822 6.71067 68.0678 6.72976 68.2964 6.98273C69.4343 8.23802 70.4628 9.57444 71.3531 10.9491C72.5292 12.7675 73.3672 14.5192 74.2575 16.3759C74.9098 17.7362 75.5812 19.1442 76.4097 20.6047C77.5428 22.5998 78.0475 23.2633 78.538 23.9029C79.0522 24.5711 79.5331 25.2011 80.5949 27.0912L80.8377 27.5303C82.328 30.2127 83.304 31.5444 83.7516 31.4584C83.8183 31.4441 84.0754 31.3534 84.3182 31.1625C84.7229 30.8475 84.8848 30.4132 84.9753 30.1793C85.8228 27.9265 85.9371 27.0291 85.9371 27.0196C86.1608 25.0006 86.318 22.2275 86.3846 19.2206C86.4227 17.6598 86.4751 17.0632 86.5417 16.3664C86.6084 15.6409 86.6846 14.8199 86.7703 12.7389L86.8179 11.4932C86.9893 7.23569 87.0084 6.68681 87.375 5.1165C88.0035 2.41501 90.2413 -0.291255 93.1314 0.0189874C94.3217 0.138311 94.9169 0.649017 95.2073 1.05949C95.8073 1.89953 95.6025 2.83503 95.3407 4.01872C95.2978 4.21441 95.2502 4.41965 95.2073 4.63443C95.0645 5.32651 95.0074 6.02336 94.9455 6.76317C94.8931 7.36934 94.8407 7.9946 94.7407 8.61031C93.698 14.9536 93.5123 19.0774 93.5123 19.1156C93.3647 22.5951 93.4933 26.1223 93.8885 29.597C93.9266 29.9359 93.6837 30.2366 93.3504 30.2795C93.0124 30.3129 92.7124 30.0743 92.6696 29.7402C92.2649 26.1986 92.1363 22.6046 92.2839 19.0631C92.2839 19.0201 92.4743 14.8247 93.5266 8.40984C93.6218 7.83709 93.6694 7.26433 93.7218 6.65339C93.7837 5.90881 93.8504 5.14037 94.0075 4.38147C94.0551 4.15714 94.098 3.94713 94.1456 3.74667C94.3741 2.70616 94.4836 2.14295 94.2122 1.76589C94.0694 1.56542 93.7456 1.30769 93.0267 1.23609C90.8888 1.00699 89.0891 3.16914 88.5701 5.38856C88.232 6.84431 88.213 7.2882 88.0416 11.5314L87.9939 12.7771C87.9082 14.8867 87.8273 15.765 87.7606 16.4714C87.694 17.173 87.6464 17.7267 87.6083 19.1967C87.5416 22.2801 87.3797 25.0865 87.1512 27.1485C87.1417 27.2487 87.0179 28.2033 86.118 30.5993C86.0085 30.8952 85.7466 31.5921 85.0657 32.1219C84.7277 32.3892 84.2944 32.5992 83.9659 32.6565C83.8849 32.6708 83.804 32.6803 83.7278 32.6803V32.6899Z" fill="#408F95"/>
<path d="M78.338 52.6553C78.2095 52.6553 78.0857 52.6553 77.9666 52.6458C77.6286 52.6315 77.3667 52.3451 77.381 52.0062C77.3953 51.6673 77.681 51.3953 78.019 51.4191C79.3093 51.4764 80.2426 51.1948 80.5997 50.6507C80.9329 50.1448 80.7996 49.4002 80.0045 47.343L77.0525 39.7015C76.4287 38.0835 75.7812 36.4082 74.8813 34.9238C74.5766 34.4226 74.3385 34.0885 74.11 33.764L73.929 33.511C72.6578 31.6925 71.9245 30.1938 70.4628 27.2059L70.4009 27.0818C69.4534 25.144 68.4535 23.1919 67.487 21.3018C66.8966 20.1515 66.3109 19.0012 65.73 17.8509C65.4777 17.3498 64.8873 16.1804 63.8303 14.7533C63.6779 14.5528 63.6113 14.4621 63.5398 14.381C63.4684 14.2903 63.397 14.2092 63.2589 14.0183C62.221 12.6246 61.0497 11.0495 60.9354 9.10689C60.8925 8.41481 60.8116 6.98292 61.8258 5.92333C62.8447 4.85896 64.5683 4.59167 66.3204 5.22647C66.6395 5.34103 66.8061 5.69422 66.6871 6.01401C66.5728 6.3338 66.2205 6.49608 65.9015 6.38153C64.6254 5.92333 63.3732 6.07606 62.7066 6.77291C62.0638 7.4459 62.121 8.48163 62.1543 9.03529C62.2495 10.6104 63.2589 11.9659 64.235 13.2784C64.3588 13.4455 64.4207 13.5219 64.4873 13.603C64.5635 13.6985 64.6397 13.7939 64.8111 14.0183C65.9348 15.5313 66.5823 16.8152 66.8252 17.2973C67.406 18.4476 67.9917 19.5978 68.5821 20.7433C69.5534 22.6382 70.5533 24.5951 71.5055 26.5425L71.5674 26.6666C73.0434 29.6879 73.7195 31.0673 74.9337 32.8046L75.1051 33.048C75.3384 33.3726 75.6003 33.7449 75.9288 34.2842C76.8858 35.8641 77.5524 37.5871 78.1952 39.2576L81.1472 46.8991C81.9281 48.9181 82.3471 50.2211 81.6233 51.3237C80.9187 52.3976 79.5141 52.6506 78.338 52.6506V52.6553Z" fill="#408F95"/>
<path d="M80.114 97.9362C80.0902 97.9362 80.0663 97.9362 80.0378 97.9362C79.6997 97.8932 79.4617 97.5877 79.5045 97.2536C80.3092 90.5238 79.1046 84.2092 77.8285 77.5222C77.6428 76.5581 77.4571 75.5844 77.2762 74.6012C77.0667 73.5559 77.1381 72.4152 77.2048 71.3126C77.2334 70.8258 77.2619 70.3676 77.2667 69.938C77.181 69.5753 77.1191 69.2269 77.062 68.8832C76.9382 68.1482 76.8286 67.5086 76.5049 67.0265C76.4906 67.0074 76.4763 66.9836 76.4668 66.9597C75.9002 65.819 74.986 64.9503 74.1099 64.1055C73.2957 63.3275 72.453 62.5161 71.8721 61.4994C70.9341 59.6189 70.0866 57.6047 69.5295 55.9342C68.0583 52.8127 65.8633 50.2782 63.5398 47.5958C62.3019 46.1639 61.0163 44.6843 59.8069 43.0663C59.0023 41.8587 59.9688 40.9566 60.4878 40.4698C60.5687 40.3934 60.6544 40.3171 60.7306 40.2407C61.5162 39.4532 62.6447 39.1763 63.6636 39.5152C65.5253 40.0498 67.1346 41.3385 68.5535 43.4577C68.663 43.5531 68.8344 43.6677 69.001 43.7775C69.2391 43.935 69.4819 44.102 69.6724 44.2882C69.6914 44.3072 69.7057 44.3263 69.7248 44.3454C70.9246 45.8919 72.2102 47.2092 73.5671 48.6029C74.4289 49.4907 75.3241 50.4071 76.1859 51.3808C76.4097 51.6337 76.3858 52.0251 76.1335 52.2494C75.8811 52.4738 75.4907 52.4499 75.2669 52.1969C74.4242 51.2424 73.5433 50.3355 72.6863 49.462C71.3769 48.1161 70.02 46.7224 68.782 45.1377C68.6773 45.0423 68.4963 44.9182 68.3202 44.8036C68.0821 44.6461 67.8393 44.4791 67.6488 44.2929C67.6203 44.2643 67.5964 44.2309 67.5726 44.1975C66.2918 42.274 64.9349 41.1571 63.3017 40.6893C62.6875 40.4841 62.059 40.6464 61.5972 41.1094C61.5115 41.1953 61.4163 41.2812 61.3258 41.3719C60.6402 42.0162 60.6544 42.126 60.8116 42.3599C61.9781 43.9159 63.2446 45.3764 64.4683 46.794C66.8584 49.5527 69.1153 52.1588 70.658 55.4473C70.6675 55.4712 70.677 55.4903 70.6865 55.5141C71.2246 57.1417 72.0578 59.113 72.9577 60.9267C73.4338 61.7619 74.1766 62.4731 74.9622 63.2272C75.9097 64.1341 76.8905 65.0744 77.5524 66.3869C78.0047 67.0838 78.1428 67.8952 78.2761 68.6875C78.3332 69.0312 78.3951 69.3844 78.4808 69.728C78.4951 69.7757 78.4999 69.8282 78.4999 69.876C78.4999 70.3676 78.4665 70.8926 78.438 71.3985C78.3761 72.4247 78.3094 73.4843 78.4904 74.3769C78.6713 75.3649 78.857 76.3338 79.0427 77.2979C80.3377 84.0803 81.5614 90.4856 80.7329 97.4064C80.6948 97.7166 80.433 97.9457 80.1235 97.9457L80.114 97.9362Z" fill="#408F95"/>
<path d="M53.9268 69.7426C53.8316 69.7426 53.7364 69.7187 53.6459 69.671C53.3459 69.5135 53.2317 69.1412 53.384 68.8405C55.5742 64.6307 56.7408 59.9914 56.755 55.4142C56.7598 53.2329 56.5122 51.0469 56.017 48.9039C52.2366 47.1045 50.3844 45.2812 50.3654 43.3386C50.3606 42.6036 50.6177 41.9258 50.8653 41.2671C51.2129 40.3459 51.4033 39.7541 51.1129 39.2434C50.97 38.9952 50.7891 38.8902 50.5368 38.747C50.3987 38.6659 50.2368 38.5752 50.0844 38.4511C48.0799 36.876 49.2703 32.6472 50.3225 28.9195L50.4796 28.3706C52.8412 19.932 52.508 16.7389 52.2889 14.6245C52.2366 14.109 52.1889 13.6651 52.1889 13.2212C52.1889 12.4623 51.908 11.4505 51.4414 11.0639C51.2986 10.9445 51.151 10.9016 50.9796 10.9207L47.3848 12.8108C47.0848 12.9683 46.7134 12.849 46.5563 12.553C46.3992 12.2523 46.5134 11.88 46.8134 11.7225L50.4987 9.78949C50.551 9.76085 50.6034 9.74176 50.6653 9.73221C51.2367 9.61766 51.7747 9.75131 52.2223 10.1188C53.165 10.892 53.4174 12.4385 53.4174 13.226C53.4174 13.6079 53.4602 14.0231 53.5126 14.5004C53.7459 16.7055 54.0935 20.0466 51.6652 28.7095L51.5081 29.2631C50.6558 32.2844 49.4893 36.4274 50.8463 37.4965C50.9367 37.5681 51.0367 37.6254 51.1605 37.697C51.4795 37.8831 51.8795 38.1122 52.1842 38.6468C52.7841 39.7016 52.3794 40.7707 52.0175 41.7206C51.7985 42.2933 51.5938 42.8374 51.5985 43.3434C51.6128 44.7705 53.4126 46.3551 56.8074 47.9349C56.9788 48.0113 57.1026 48.164 57.1455 48.3454C57.7121 50.6746 57.993 53.0611 57.9835 55.438C57.9692 60.211 56.7551 65.046 54.4744 69.4276C54.3649 69.6376 54.1506 69.7569 53.9316 69.7569L53.9268 69.7426Z" fill="#408F95"/>
<path d="M43.909 28.7714C43.7138 28.7714 43.5186 28.676 43.3995 28.5042C43.2091 28.2225 43.2805 27.8407 43.5614 27.6498C43.9899 27.3586 44.1613 26.6857 44.2946 26.0174L45.4659 20.2851C45.6469 19.4021 45.8326 18.4905 45.804 17.6075C45.7945 17.3116 45.7611 17.0013 45.723 16.6815C45.6231 15.7795 45.5135 14.758 45.9659 13.8273C46.1135 13.5218 46.4801 13.3977 46.7848 13.5457C47.0895 13.6937 47.2133 14.0612 47.0657 14.3667C46.7658 14.9776 46.8515 15.7413 46.9372 16.5479C46.9753 16.882 47.0086 17.2257 47.0229 17.5645C47.0562 18.5907 46.8562 19.574 46.661 20.5285L45.4897 26.2609C45.3517 26.9339 45.1184 28.065 44.2423 28.6617C44.1375 28.7333 44.0185 28.7667 43.8995 28.7667L43.909 28.7714Z" fill="#408F95"/>
<path d="M38.2143 32.6375C38.0429 32.6375 37.8715 32.5659 37.7524 32.4228C37.5286 32.1602 37.1906 31.7689 36.7954 31.282C35.4765 29.6544 34.8718 28.9146 34.6147 28.2416C33.9243 26.4661 34.3243 24.7765 34.4719 24.1417C34.5671 23.7312 34.6861 23.2969 34.929 22.8959C35.5337 21.9127 36.6335 21.5356 37.7096 21.2349C38.2095 21.0965 38.9666 20.8817 39.676 21.2063C40.6473 21.655 40.8759 22.7671 41.0377 23.5785L41.0711 23.7312C41.2996 24.8385 41.771 25.9029 42.4328 26.8145C42.6328 27.0866 42.5709 27.4732 42.2995 27.6737C42.0281 27.8741 41.6424 27.8121 41.4424 27.54C40.6806 26.49 40.1378 25.2585 39.8712 23.9842L39.8379 23.8267C39.7093 23.1823 39.5713 22.5141 39.1665 22.3279C38.8904 22.1991 38.4761 22.2993 38.0429 22.4234C37.1668 22.6668 36.3478 22.9389 35.9765 23.5451C35.8289 23.7885 35.7479 24.1035 35.667 24.428C35.4527 25.3349 35.2718 26.5425 35.7574 27.7978C35.9479 28.2894 36.5859 29.0769 37.7429 30.504C38.1333 30.9813 38.4571 31.3679 38.6761 31.6209C38.8951 31.8786 38.8713 32.2652 38.6142 32.4896C38.5 32.5898 38.3571 32.6375 38.2143 32.6375Z" fill="#408F95"/>
<path d="M43.8421 76.1527C43.7183 76.1527 43.5898 76.1145 43.4803 76.0334C40.5711 73.8951 38.5523 71.6232 37.4763 69.2749L37.4001 69.1078C37.162 68.578 36.7668 67.6998 36.0288 66.6402C35.1956 65.447 34.1624 64.3874 32.9673 63.4805C32.7007 63.2801 32.6435 62.8982 32.8435 62.6262C33.4672 61.7766 34.1481 60.9795 34.8623 60.2588C35.0004 60.1204 35.1384 59.9867 35.267 59.8579C35.8146 59.3281 36.2431 58.908 36.6192 58.2112C36.8382 57.8055 37.0049 57.3664 37.1144 56.9082C37.1953 56.5788 37.5239 56.3736 37.8524 56.4547C38.1809 56.5359 38.3857 56.8652 38.3047 57.1946C38.1714 57.7578 37.9619 58.2971 37.6953 58.7935C37.2334 59.6526 36.6906 60.1777 36.1193 60.7361C35.9955 60.8602 35.8622 60.9843 35.7289 61.1227C35.1908 61.6668 34.6718 62.2539 34.1862 62.8791C35.2813 63.7765 36.2383 64.8026 37.0335 65.9338C37.8429 67.0889 38.2809 68.0721 38.519 68.6019L38.5904 68.7642C39.576 70.9216 41.4615 73.0312 44.204 75.0454C44.4754 75.2459 44.5373 75.6325 44.3373 75.9045C44.2183 76.0668 44.0326 76.1575 43.8421 76.1575V76.1527Z" fill="#408F95"/>
<path d="M43.8423 76.1523C43.7804 76.1523 43.7185 76.1427 43.6566 76.1236C43.3328 76.0186 43.1567 75.675 43.2614 75.3504C44.1375 72.6107 45.2278 70.1718 46.3848 67.5896C47.0657 66.067 47.7704 64.492 48.4227 62.8548C50.0939 58.6689 50.0082 56.8886 49.294 55.2324C48.3418 53.0273 46.1706 51.8245 44.5136 51.204C44.1946 51.0847 44.0375 50.7315 44.1518 50.4117C44.2708 50.0919 44.6232 49.9344 44.9422 50.049C46.8229 50.7506 49.294 52.1395 50.4177 54.7408C51.3842 56.9889 51.1557 59.3085 49.5606 63.3035C48.8988 64.9645 48.1894 66.5491 47.5038 68.086C46.361 70.6395 45.285 73.0499 44.4279 75.7227C44.3422 75.9852 44.1042 76.1475 43.8423 76.1475V76.1523Z" fill="#408F95"/>
<path d="M40.9711 46.4219C40.8663 46.4219 40.7663 46.398 40.6711 46.3407C40.3759 46.1737 40.2759 45.7966 40.4426 45.5054C41.0853 44.3695 41.8281 42.5319 41.7091 40.217C41.5424 36.9762 39.7426 34.7615 38.9761 33.9597C38.7428 33.7162 38.7523 33.3249 38.9951 33.091C39.2379 32.8571 39.6284 32.8667 39.8617 33.1101C40.7235 34.0122 42.747 36.4989 42.9327 40.155C43.066 42.7658 42.2328 44.8372 41.5091 46.1116C41.3948 46.3121 41.1901 46.4219 40.9758 46.4219H40.9711Z" fill="#408F95"/>
<path d="M28.8726 56.3305C27.3966 56.3305 25.9824 55.7578 25.054 54.7363C24.216 53.8152 23.7208 52.5551 23.4923 50.77C22.9542 46.5412 23.9875 42.3362 24.9826 38.2696L25.0111 38.1551C25.1397 37.6348 25.2444 37.0955 25.0397 36.7709C24.9159 36.58 24.6493 36.4225 24.2827 36.3318C22.4257 35.8736 20.4784 37.3485 19.6689 39.0381C18.7548 40.9425 18.7643 43.2431 18.7738 45.2763C18.7738 45.6964 18.7976 46.0734 18.8167 46.4505C18.8595 47.2142 18.9024 48.0065 18.7881 49.1377C18.6786 50.2259 18.4738 51.3141 18.1691 52.3737C18.0739 52.6983 17.7311 52.8892 17.4121 52.7937C17.0883 52.6983 16.8978 52.3594 16.9931 52.0348C17.2787 51.0468 17.4692 50.0302 17.5692 49.0136C17.6739 47.9778 17.6311 47.2667 17.593 46.5125C17.5692 46.1212 17.5501 45.725 17.5454 45.2763C17.5311 43.1142 17.5216 40.6609 18.5595 38.4987C19.5689 36.3939 22.021 34.5038 24.5731 35.1338C25.2587 35.3009 25.7777 35.6397 26.0729 36.1075C26.5395 36.8425 26.3824 37.7017 26.2015 38.4462L26.1729 38.5608C25.2016 42.5176 24.2017 46.6128 24.7112 50.6125C24.9064 52.1351 25.3016 53.1804 25.9586 53.9058C26.8633 54.8986 28.4012 55.3186 29.8724 54.9845C31.2056 54.6791 32.4816 53.7913 33.4625 52.4787L33.5149 52.4071C33.872 51.9298 34.31 51.338 35.0623 51.2139C35.7812 51.0946 36.2002 51.6435 36.4526 51.968C36.5097 52.0444 36.5954 52.1542 36.6526 52.2114C36.8478 52.1351 37.7096 51.5719 39.6998 47.343C39.8426 47.0376 40.2093 46.9039 40.514 47.0471C40.8187 47.1903 40.952 47.5578 40.8092 47.8633C38.3476 53.0992 37.2144 53.629 36.3574 53.4142C35.9384 53.3092 35.686 52.9799 35.4813 52.7126C35.4099 52.6219 35.3003 52.4787 35.2385 52.4262C34.9861 52.4883 34.7433 52.8176 34.5052 53.1374L34.4481 53.2138C33.2911 54.7554 31.7674 55.8103 30.1486 56.1778C29.7296 56.2732 29.3011 56.321 28.8773 56.321L28.8726 56.3305Z" fill="#408F95"/>
<path d="M20.9071 60.6358C20.9071 60.6358 20.8785 60.6358 20.8642 60.6358C19.3787 60.526 17.8693 60.4544 16.3743 60.4162C15.5982 60.3971 14.9649 60.3924 14.4221 60.3876C12.8223 60.3733 11.9415 60.3637 10.6512 60.0392C8.84188 59.5857 7.44205 58.8937 6.37075 57.9152C5.02806 56.6885 4.29482 55.0037 4.40909 53.4095C4.47099 52.5265 4.93284 51.6483 5.58514 51.171C6.05175 50.8321 6.5993 50.7176 7.12304 50.8465C7.54204 50.9515 7.86581 51.1901 8.15149 51.4001L8.2848 51.5003C10.0322 52.7604 12.4795 52.9561 14.4126 52.9895C15.0078 52.9991 15.622 52.9704 16.2314 52.9036C16.5695 52.8606 16.8695 53.1088 16.9076 53.4477C16.9456 53.7866 16.7028 54.0873 16.3648 54.1255C15.7077 54.1971 15.0411 54.2305 14.3936 54.2162C12.2796 54.1827 9.59893 53.9536 7.57061 52.4979L7.42301 52.3881C7.21351 52.2306 7.01353 52.0826 6.82784 52.0397C6.65167 51.9967 6.48026 52.0397 6.3041 52.1638C5.95176 52.4215 5.66608 52.98 5.63275 53.4907C5.54705 54.7173 6.13269 56.0299 7.19922 57.0036C8.1134 57.8388 9.34182 58.4402 10.9511 58.8412C12.1034 59.1275 12.8366 59.1371 14.4364 59.1514C14.984 59.1562 15.6268 59.1609 16.4076 59.18C17.9217 59.2182 19.4501 59.2898 20.9547 59.3996C21.2927 59.4234 21.5451 59.7194 21.5213 60.0583C21.4975 60.3828 21.2308 60.6262 20.9118 60.6262L20.9071 60.6358Z" fill="#408F95"/>
<path d="M54.7695 95.6927C54.6267 95.6927 54.4886 95.645 54.3743 95.5448C49.2035 91.1346 43.8994 88.6335 38.6096 88.1037C38.1001 88.0512 37.6097 88.1706 36.9336 88.3376C35.3291 88.729 32.9008 89.3256 27.5776 88.0894C23.302 87.1014 20.1214 87.0966 16.9408 88.0799C16.9218 88.0846 16.9027 88.0894 16.8789 88.0942C15.0887 88.4522 13.4841 88.0083 12.789 86.963C12.3033 86.1182 12.4176 85.4929 12.589 85.1063C13.1746 83.8176 15.2744 83.4024 16.5314 83.1494H16.5409C16.798 82.9776 17.236 82.4526 17.3122 81.9991C17.3455 81.7987 17.2932 81.6841 17.2265 81.603C16.0029 80.8059 14.6078 80.4527 13.127 80.0756C12.6509 79.9563 12.17 79.8322 11.6891 79.6986C11.6701 79.6938 11.651 79.6843 11.632 79.6795C6.8754 77.7703 2.40929 75.6941 0.0762386 71.3077C0.00481879 71.1741 -0.0142265 71.0166 0.0238641 70.8686C0.266691 69.8997 0.83805 69.2028 1.67604 68.8544C2.93303 68.3342 4.52807 68.7208 5.547 69.3317C6.69924 69.9045 7.79434 70.5536 8.85135 71.1788C10.3988 72.0953 11.8653 72.9544 13.5317 73.6226C13.546 73.6274 13.5651 73.6369 13.5793 73.6417C13.7984 73.7515 14.0555 73.7801 14.2174 73.7133C14.284 73.6846 14.384 73.6226 14.4507 73.4174C14.6125 72.8398 14.6459 72.1764 14.6744 71.5273C14.7411 70.1193 14.8125 68.5251 16.4552 67.5848C17.9026 66.8593 19.731 66.9214 20.4785 68.4201C21.3974 69.9522 20.6737 71.7182 20.0928 73.1358L20.0071 73.3458C21.1784 76.7966 24.6066 78.4337 27.3824 79.7511C31.0058 80.9395 34.972 80.3859 38.5906 79.7368C37.4526 78.5865 36.3146 77.4266 35.1767 76.2573C30.5725 71.5273 25.9731 66.6589 21.5069 61.7809C21.2784 61.5327 21.2927 61.1413 21.545 60.9122C21.7926 60.6831 22.183 60.6974 22.4116 60.9504C26.8729 65.8188 31.4629 70.6777 36.0575 75.3981C37.4669 76.8491 38.8762 78.281 40.2856 79.7033C40.4475 79.8656 40.5046 80.1043 40.438 80.3191C40.3713 80.5386 40.1856 80.6961 39.9618 80.7391C35.8957 81.4884 31.2867 82.3332 26.9682 80.9061C26.9444 80.8966 26.9206 80.887 26.8968 80.8775C23.8448 79.4313 20.0405 77.6271 18.7739 73.5033C18.7311 73.3696 18.7406 73.2264 18.793 73.0928L18.9644 72.668C19.4929 71.3841 20.0357 70.0572 19.412 69.0119C18.9834 68.1576 17.8883 68.2435 17.0408 68.6683C16.0648 69.2267 15.9743 70.1431 15.9029 71.5845C15.8695 72.3005 15.8362 73.0403 15.622 73.7753C15.4029 74.4292 14.9935 74.7156 14.684 74.8397C14.1983 75.0402 13.5889 75.0068 13.0508 74.7442C11.3082 74.0426 9.80838 73.1596 8.22762 72.2241C7.18489 71.6084 6.10883 70.9736 4.95659 70.3961C4.1805 69.9331 2.99969 69.6181 2.14265 69.9761C1.72366 70.1479 1.44274 70.4629 1.27609 70.9307C3.44725 74.8015 7.61341 76.7298 12.0557 78.5101C12.5128 78.639 12.9699 78.7583 13.427 78.8728C14.9649 79.2595 16.5504 79.6604 17.9645 80.6054C17.9978 80.6293 18.0312 80.6532 18.0597 80.6818C18.4502 81.0732 18.6168 81.6077 18.5264 82.1805C18.374 83.1303 17.5646 84.0038 17.0361 84.2663C16.9884 84.2902 16.9361 84.3092 16.8837 84.3188L16.779 84.3379C15.96 84.5002 14.0364 84.8868 13.7127 85.5979C13.6841 85.6648 13.5936 85.8652 13.8365 86.2996C14.2174 86.8675 15.3648 87.1205 16.6123 86.8771C20.8784 85.5693 24.6875 86.1421 27.8538 86.8771C32.896 88.0417 35.0672 87.5167 36.6479 87.1253C37.3812 86.9439 38.0144 86.7912 38.7334 86.8628C44.2756 87.4164 49.8082 90.0177 55.1695 94.595C55.4266 94.8145 55.4599 95.2011 55.2409 95.4589C55.1219 95.6021 54.9457 95.6737 54.7743 95.6737L54.7695 95.6927Z" fill="#408F95"/>
<path d="M79.6664 102.594C79.5046 102.594 79.3474 102.532 79.2332 102.413C77.8619 101.024 73.2244 96.3849 71.0056 94.9339C70.5914 94.6618 70.0962 94.3468 69.92 94.2371C69.901 94.2275 69.8819 94.2132 69.8629 94.1989C69.501 93.9793 69.1344 93.7598 68.7725 93.545C68.0393 93.1106 67.2822 92.662 66.5538 92.1704C64.7397 90.9389 63.1113 89.4355 61.5353 87.9845C59.5642 86.1612 57.5215 84.2759 55.1647 83.0015C53.6173 82.1615 51.2747 80.8966 51.5889 78.7154C51.6366 78.3813 51.946 78.1474 52.2841 78.1951C52.6174 78.2429 52.8507 78.5531 52.8031 78.892C52.6269 80.1234 54.0934 81.0303 55.7503 81.9228C58.2453 83.2736 60.3402 85.2066 62.3686 87.0824C63.9112 88.5047 65.5063 89.9796 67.2394 91.1537C67.9346 91.6262 68.6773 92.0654 69.3963 92.4901C69.7677 92.7097 70.1343 92.9293 70.5057 93.1536C70.5104 93.1536 70.5152 93.1584 70.5199 93.1631L70.5818 93.2013C70.7628 93.3159 71.2579 93.6357 71.6769 93.9077C73.5815 95.1535 77.0096 98.4611 79.1046 100.547C79.1046 100.523 79.1046 100.499 79.1141 100.471C79.1189 100.399 79.1427 100.227 79.1665 100.017C79.2046 99.7307 79.2379 99.4921 79.2665 99.3202C79.3189 98.9861 79.6331 98.757 79.9664 98.8095C80.2997 98.862 80.5282 99.1771 80.4759 99.5112C80.4521 99.6734 80.4187 99.9025 80.3806 100.175C80.3568 100.37 80.3378 100.537 80.3283 100.599C80.2854 101.029 80.2664 101.487 80.2807 101.969C80.2854 102.222 80.1378 102.451 79.9093 102.552C79.8331 102.585 79.7521 102.599 79.6712 102.599L79.6664 102.594Z" fill="#408F95"/>
<path d="M64.9443 123.911C64.8062 123.911 64.6729 123.868 64.5586 123.772C61.5971 121.357 58.426 119.353 55.136 117.816C51.5888 116.16 50.2128 116.436 48.8844 116.704C48.2082 116.837 48.013 117.319 47.7036 118.222C47.5845 118.565 47.4655 118.918 47.2941 119.262C47.2179 119.415 47.0798 119.529 46.9179 119.577C45.7562 119.921 44.542 120.355 43.3707 120.78C39.4998 122.178 35.4955 123.62 31.577 122.469C31.3579 122.403 31.1913 122.226 31.1484 122.002C30.8532 120.522 31.596 120.035 32.0864 119.711C32.2293 119.615 32.3673 119.529 32.4673 119.424C32.5149 119.377 32.5673 119.338 32.6244 119.31C33.8814 118.68 35.2337 118.35 36.662 118.007C37.2477 117.864 37.8524 117.72 38.4428 117.549C39.4617 117.047 40.6425 116.766 41.6852 116.513C41.7138 116.508 41.7424 116.498 41.7709 116.494C41.2377 115.821 39.7617 114.599 38.8618 114.398C37.3334 114.26 35.8241 114.336 34.3719 114.403C32.8625 114.475 31.3008 114.551 29.6724 114.403C25.4539 113.826 21.1735 113.764 17.0311 113.702C14.9457 113.668 12.7935 113.635 10.67 113.539C7.33231 113.167 4.94213 112.427 2.87572 111.134C2.75192 111.057 2.66622 110.938 2.61861 110.809C2.61861 110.8 2.61385 110.79 2.60908 110.78C2.60908 110.771 2.60432 110.761 2.59956 110.752C2.57099 110.618 2.58528 110.47 2.64717 110.341C2.67098 110.298 2.69479 110.251 2.71859 110.213C3.82322 108.351 5.72299 107.406 8.356 107.401C14.1077 106.943 19.5594 107.206 25.3253 107.487C26.7871 107.559 28.2583 107.63 29.7391 107.688H29.7439C30.1533 107.688 30.6009 107.735 31.0389 107.783C32.1245 107.898 33.1482 108.007 34.01 107.487C34.1385 107.401 34.229 107.225 34.2528 106.986C34.2957 106.542 34.1052 106.06 33.891 105.85C33.8433 105.802 33.8053 105.75 33.7767 105.693C33.2768 104.69 32.5959 103.726 31.8769 102.705C30.5676 100.843 29.2106 98.9149 28.8202 96.5619C28.8154 96.5285 28.8106 96.495 28.8106 96.4616C28.8106 95.0727 29.4629 94.4522 30.0152 94.1754C30.0771 94.142 30.1438 94.1229 30.2152 94.1133C32.5816 93.8126 34.9051 94.9152 36.2811 96.9819C36.4383 97.2205 36.5763 97.4353 36.7001 97.6358C37.0334 98.1608 37.2715 98.5379 37.6429 98.9149C37.681 98.9531 37.7143 98.9961 37.7429 99.0438C38.4999 100.375 39.0141 101.807 39.5093 103.196C39.7474 103.86 39.9712 104.495 40.2235 105.11C41.7995 105.187 43.2231 105.463 44.4659 105.941C44.9563 106.127 46.6608 106.824 46.6608 106.824L46.199 107.96C46.199 107.96 44.5135 107.272 44.0278 107.086C42.8089 106.618 41.3853 106.361 39.795 106.323C39.5569 106.318 39.3427 106.17 39.2474 105.95C38.9237 105.191 38.638 104.39 38.3571 103.612C37.8905 102.299 37.4048 100.943 36.7192 99.7263C36.2811 99.2777 35.9955 98.8195 35.6669 98.2992C35.5431 98.1083 35.4146 97.8983 35.2622 97.6692C34.1671 96.0273 32.3483 95.1347 30.4866 95.3257C30.2819 95.4545 30.0533 95.7266 30.0438 96.4139C30.4009 98.471 31.6627 100.266 32.8863 102.003C33.5815 102.991 34.3004 104.012 34.8385 105.067C35.286 105.573 35.5479 106.399 35.4765 107.115C35.4193 107.721 35.1289 108.227 34.6718 108.532C33.4339 109.277 32.0959 109.139 30.9151 109.01C30.4914 108.967 30.0867 108.924 29.72 108.924C28.2107 108.862 26.7347 108.79 25.273 108.719C19.5403 108.437 14.122 108.174 8.43694 108.633C8.42266 108.633 8.40361 108.633 8.38933 108.633C6.63716 108.633 5.3278 109.086 4.41362 110.012C4.65645 110.193 4.83738 110.427 4.90404 110.652C4.92785 110.723 4.93737 110.795 4.94213 110.866C6.53241 111.597 8.39409 112.06 10.7605 112.322C12.8269 112.413 14.9695 112.446 17.0454 112.48C21.2211 112.542 25.5396 112.609 29.8057 113.191C31.3198 113.329 32.8387 113.258 34.31 113.191C35.8193 113.119 37.3762 113.043 39.0046 113.191C39.0284 113.191 39.0475 113.196 39.0713 113.2C40.4616 113.482 43.1089 115.592 43.1803 116.713C43.2041 117.105 42.9803 117.439 42.6042 117.568C42.3709 117.63 42.1757 117.677 41.9709 117.725C40.971 117.964 39.8378 118.241 38.938 118.689C38.9046 118.708 38.8665 118.718 38.8332 118.732C38.2 118.914 37.5619 119.066 36.9525 119.214C35.6241 119.534 34.3719 119.84 33.2577 120.384C33.0863 120.536 32.9149 120.651 32.7578 120.756C32.434 120.971 32.2864 121.066 32.3007 121.41C35.7241 122.25 39.3998 120.928 42.9565 119.644C44.0564 119.248 45.1896 118.837 46.3037 118.498C46.3894 118.288 46.4656 118.069 46.5466 117.84C46.856 116.928 47.2465 115.792 48.6463 115.515C50.0985 115.224 51.7507 114.895 55.655 116.718C59.0403 118.298 62.297 120.355 65.3347 122.837C65.5966 123.052 65.6347 123.438 65.4252 123.701C65.3062 123.849 65.13 123.925 64.9491 123.925L64.9443 123.911Z" fill="#408F95"/>
<path d="M101.978 133.056C101.845 133.056 101.707 133.013 101.597 132.922C101.335 132.712 101.292 132.325 101.502 132.058C103.625 129.399 106.068 127.013 108.768 124.965C110.805 123.419 113.005 122.054 115.305 120.913C115.61 120.76 115.976 120.889 116.124 121.19C116.276 121.495 116.148 121.863 115.848 122.011C113.619 123.118 111.486 124.44 109.506 125.939C106.887 127.925 104.516 130.239 102.459 132.822C102.34 132.974 102.159 133.051 101.978 133.051V133.056Z" fill="#408F95"/>
<path d="M85.0563 154.071C84.7754 154.071 84.4897 154.047 84.204 153.995C81.1996 153.431 79.9617 150.119 78.2476 145.532C77.1763 142.654 75.9574 139.399 74.0196 135.905C71.9151 132.115 69.263 128.617 66.13 125.5C65.892 125.261 65.8872 124.87 66.13 124.631C66.3681 124.393 66.7585 124.388 66.9966 124.631C70.2105 127.829 72.934 131.423 75.0909 135.313C77.0716 138.884 78.3619 142.334 79.3951 145.107C80.9663 149.317 82.0995 152.358 84.4278 152.792C86.1466 153.112 87.9512 151.976 88.813 151.427C91.027 150.024 91.9412 148.024 93.0029 145.709C93.1505 145.389 93.2981 145.064 93.4505 144.74C95.1455 141.151 97.35 137.628 100.002 134.263C100.212 133.996 100.597 133.953 100.864 134.163C101.131 134.373 101.173 134.76 100.964 135.027C98.3689 138.32 96.2121 141.762 94.5599 145.27C94.4075 145.59 94.2647 145.909 94.1171 146.224C93.022 148.616 91.984 150.873 89.4653 152.467C88.5987 153.016 86.918 154.081 85.0515 154.081L85.0563 154.071Z" fill="#408F95"/>
<path d="M88.5987 93.2923C88.3559 93.2923 88.1083 93.2302 87.8941 93.0441C87.5179 92.7099 87.5227 92.2088 87.5274 91.846C87.5274 91.5358 87.5798 91.2303 87.6798 90.9344C87.7845 90.6146 88.1321 90.438 88.4559 90.543C88.7749 90.648 88.9511 90.9965 88.8463 91.321C88.7892 91.4976 88.7559 91.6742 88.7559 91.8604C88.7559 91.9129 88.7559 91.9797 88.7559 92.0417C88.8368 92.0226 88.9273 91.9892 88.9796 91.9749C89.7272 91.7267 90.5271 91.5072 91.446 91.2924C91.7745 91.216 92.1031 91.4213 92.1792 91.7554C92.2554 92.0847 92.0507 92.414 91.7174 92.4904C90.8366 92.6909 90.0747 92.9056 89.3796 93.1347C89.1939 93.1968 88.9035 93.2923 88.6035 93.2923H88.5987Z" fill="#408F95"/>
<path d="M92.7647 118.46C92.6885 118.46 92.6076 118.45 92.5314 118.431C92.1838 118.35 91.9172 118.088 91.7362 117.663C90.9554 115.811 91.7077 113.095 91.7362 112.98C91.7458 112.947 92.6599 109.678 93.6265 104.036C93.7741 103.167 93.8169 102.79 93.7646 102.284C93.6122 100.752 92.7266 99.2964 91.1268 97.9647C90.9982 97.8597 90.9173 97.7022 90.9078 97.5352C90.8982 97.3681 90.9554 97.2011 91.0649 97.077C92.2124 95.8074 93.3265 95.2776 94.2788 95.5401C94.8882 95.7071 95.2406 96.151 95.4072 96.3658C96.2357 97.4111 96.7975 97.8359 97.2975 98.2082C97.8022 98.59 98.2831 98.948 98.7592 99.7785C99.5877 101.229 99.6829 102.795 99.7591 104.055C99.8162 104.995 99.8638 105.807 100.188 106.15C100.64 106.628 100.84 107.105 100.802 107.592C100.768 108.007 100.535 108.327 100.388 108.542L93.8026 117.782C93.4836 118.226 93.1361 118.45 92.7599 118.45L92.7647 118.46ZM92.4171 97.4636C93.955 98.8955 94.8216 100.475 94.9882 102.165C95.0549 102.847 94.9882 103.344 94.8359 104.246C93.855 109.954 92.9266 113.281 92.917 113.315C92.9123 113.338 92.2838 115.606 92.8171 117.066L99.3924 107.84C99.4639 107.745 99.5781 107.582 99.5829 107.501C99.5924 107.382 99.5019 107.22 99.3163 107.024C98.6687 106.327 98.6116 105.315 98.5402 104.136C98.4687 102.948 98.3878 101.597 97.7022 100.399C97.3498 99.7832 97.0404 99.5494 96.569 99.1962C96.0405 98.8 95.3786 98.3036 94.4645 97.1438C94.3359 96.9815 94.1883 96.7906 93.9645 96.7286C93.5932 96.6283 93.0361 96.8956 92.4219 97.4588L92.4171 97.4636Z" fill="#408F95"/>
<path d="M97.0738 126.221C96.8119 126.221 96.6119 126.121 96.4833 126.03C96.2453 125.858 96.1596 125.543 96.2786 125.276C96.8881 123.925 97.5927 122.622 98.3688 121.395C101.102 117.085 103.454 115.615 104.654 115.692C104.935 115.706 105.782 115.754 106.058 116.412C106.173 116.685 106.154 116.99 106.001 117.315C105.292 118.842 101.949 122.488 101.568 122.899C101.549 122.918 101.53 122.937 101.507 122.956L98.1165 125.758C97.6975 126.102 97.3451 126.216 97.0642 126.216L97.0738 126.221ZM104.563 116.923C103.925 116.923 101.873 118.155 99.402 122.059C98.9878 122.713 98.5926 123.391 98.226 124.087L100.697 122.04C101.673 120.98 104.154 118.174 104.816 116.942C104.759 116.933 104.682 116.923 104.587 116.918C104.587 116.918 104.573 116.918 104.563 116.918V116.923Z" fill="#408F95"/>
<path d="M80.1997 129.471C80.0378 129.471 79.8807 129.404 79.7616 129.29C77.9381 127.433 75.9097 125.763 73.7433 124.326C73.4624 124.14 73.3862 123.758 73.5719 123.476C73.5576 123.219 73.6243 122.97 73.7624 122.765C73.8814 122.593 74.0814 122.484 74.2909 122.498C76.4144 122.584 78.4666 123.519 79.9188 125.075C80.9472 126.178 81.6281 127.944 80.6901 129.223C80.5853 129.366 80.4187 129.457 80.2425 129.471C80.2282 129.471 80.214 129.471 80.1997 129.471ZM75.1955 123.825C76.8667 124.994 78.4427 126.292 79.9092 127.705C79.8711 127.109 79.5045 126.426 79.0236 125.906C78.0095 124.817 76.6477 124.087 75.1955 123.82V123.825Z" fill="#408F95"/>
<path d="M82.3136 121.247C82.0422 121.247 81.7994 121.066 81.7232 120.799L80.1806 115.334C79.9187 115.061 79.733 114.756 79.6283 114.417C79.4616 113.868 79.5664 113.41 79.6711 112.966C79.7092 112.813 79.7473 112.651 79.7806 112.465C79.8425 112.121 79.833 111.716 79.814 110.919C79.7901 109.859 79.6187 109.114 79.4616 108.456C79.2521 107.568 79.0759 106.804 79.4283 105.831C79.5806 105.415 79.7997 105.024 80.0901 104.676C80.3044 104.418 80.6853 104.38 80.9471 104.59C81.8232 105.296 82.4565 106.146 82.8279 107.105C83.2231 108.122 83.204 108.976 83.1802 110.155V110.217C83.1659 110.794 83.1659 111.372 83.1659 111.954C83.1659 112.88 83.1659 113.84 83.1183 114.789C83.0231 116.67 82.9564 118.641 82.9231 120.651C82.9231 120.956 82.6898 121.209 82.3898 121.252C82.3613 121.252 82.3374 121.257 82.3089 121.257L82.3136 121.247ZM80.5853 106.246C80.3567 106.881 80.471 107.367 80.6615 108.174C80.8186 108.857 81.0186 109.706 81.0471 110.89C81.0662 111.768 81.0757 112.212 80.9948 112.675C80.9567 112.89 80.9138 113.076 80.871 113.253C80.7757 113.653 80.7376 113.84 80.8043 114.059C80.8567 114.236 80.971 114.398 81.1376 114.551C81.2233 114.627 81.2852 114.727 81.3185 114.842L81.8137 116.589C81.8375 115.959 81.8661 115.334 81.8994 114.718C81.947 113.801 81.947 112.856 81.947 111.945C81.947 111.358 81.947 110.771 81.9613 110.184V110.121C81.9851 109.009 81.9994 108.332 81.6947 107.544C81.4757 106.981 81.1376 106.465 80.69 106.002C80.6519 106.084 80.6186 106.165 80.59 106.246H80.5853Z" fill="#408F95"/>
<path d="M86.0084 45.2955C85.4752 45.2955 85.0609 44.7562 84.9086 44.5605C84.2515 43.7157 84.3229 42.7229 84.3896 41.7588C84.4515 40.9044 84.5134 40.0214 84.1658 39.0668C84.023 38.6707 83.842 38.3604 83.6801 38.0884C83.3754 37.5681 83.0659 37.0288 83.304 36.2985C83.5849 35.4346 84.4562 34.7998 85.2561 34.8857C86.7083 35.0385 87.4368 37.4249 87.4892 38.6086C87.5701 40.5274 87.3987 42.4461 86.9797 44.3171C86.9369 44.508 86.8226 45.0187 86.3417 45.2287C86.2274 45.2764 86.1179 45.3003 86.0132 45.3003L86.0084 45.2955ZM85.1085 36.1028C84.9086 36.1028 84.5705 36.3749 84.4705 36.6804C84.4086 36.8665 84.4705 37.0049 84.7419 37.4679C84.9181 37.7686 85.1371 38.1456 85.318 38.6468C85.7561 39.8496 85.6751 40.9569 85.6132 41.8495C85.5513 42.7515 85.5275 43.3338 85.8418 43.7682C86.1941 42.0929 86.337 40.3746 86.2655 38.6611C86.2227 37.6111 85.5751 36.1553 85.1323 36.1076C85.1276 36.1076 85.1181 36.1076 85.1133 36.1076L85.1085 36.1028Z" fill="#408F95"/>
<path d="M37.705 57.6622C37.4098 57.6622 37.1527 57.4521 37.1003 57.1515C37.0432 56.8173 37.2717 56.5023 37.605 56.4451C38.6382 56.2685 39.5524 55.9105 40.319 55.3711C41.3712 54.6313 42.0235 53.6481 43.3234 51.696C43.6281 51.2378 43.9233 50.77 44.1994 50.3118C44.3756 50.0207 44.7518 49.93 45.0422 50.1018C45.3326 50.2784 45.4279 50.6555 45.2517 50.9466C44.966 51.4239 44.6613 51.9012 44.347 52.3785C43.0044 54.3927 42.2663 55.5048 41.0284 56.3782C40.1095 57.0226 39.0287 57.4569 37.8098 57.6622C37.7764 57.6669 37.7431 57.6717 37.7098 57.6717L37.705 57.6622Z" fill="#408F95"/>
<path d="M48.6749 108.079C48.6368 108.079 48.5987 108.079 48.5606 108.069C48.2273 108.007 48.0083 107.683 48.075 107.349C48.6273 104.471 48.8177 104.084 49.2701 103.63C49.6652 103.234 49.989 103.067 50.2699 102.919C50.4937 102.805 50.6746 102.709 50.9032 102.499C51.0984 102.323 51.246 102.055 51.2698 101.831L47.6845 101.979C46.599 102.022 45.1087 102.084 43.9612 101.249C43.1565 100.662 42.6709 99.4971 43.2803 98.6284C43.6612 98.0891 44.285 97.922 44.842 97.8313C45.68 97.6929 46.5371 97.6166 47.3846 97.6022H47.6845C48.1559 97.5975 48.5987 97.5927 49.0082 97.4972C49.4891 97.3827 49.97 97.1297 50.4366 96.8768L54.4456 94.7289C54.7456 94.5714 55.117 94.6812 55.2741 94.9819C55.4312 95.2826 55.3217 95.6549 55.0217 95.8124L51.0127 97.9602C50.5032 98.2323 49.9271 98.5425 49.2891 98.6905C48.7463 98.8194 48.213 98.8194 47.6941 98.8241H47.4036C46.6132 98.8384 45.8229 98.91 45.042 99.0389C44.7516 99.0866 44.404 99.163 44.2802 99.3348C44.1231 99.5544 44.3707 100.022 44.6801 100.246C45.4229 100.786 46.4561 100.791 47.6322 100.743L51.6745 100.576C51.8745 100.561 52.0697 100.657 52.1887 100.819C52.8125 101.645 52.4173 102.762 51.7317 103.397C51.3793 103.721 51.0889 103.874 50.8318 104.008C50.5889 104.132 50.3937 104.232 50.1366 104.494C49.9509 104.681 49.8033 104.828 49.2796 107.578C49.2224 107.874 48.9653 108.074 48.6797 108.074L48.6749 108.079Z" fill="#408F95"/>
<path d="M74.6241 118.417C74.6241 118.417 74.5907 118.417 74.5764 118.417L74.2479 118.393C72.4624 118.255 70.6103 118.107 68.8819 117.348C66.9393 116.494 65.649 115.778 64.2015 114.895C61.7542 113.405 59.0498 112.102 56.1597 111.029L55.893 110.943C55.793 110.909 55.7073 110.852 55.6359 110.78C55.0741 110.179 54.6265 109.501 54.298 108.757L54.2599 108.671C53.9933 108.06 53.7171 107.435 53.8171 106.657C53.9028 105.984 55.6026 101.812 56.5453 101.306C56.5739 101.292 56.6358 101.254 56.7215 101.201C57.6119 100.666 58.5118 100.151 59.0593 100.046C60.7067 99.7214 62.4018 99.7023 64.1015 99.9839C64.192 99.9982 64.2777 100.032 64.3539 100.089C67.2393 102.117 69.7437 104.781 71.5959 107.788C73.448 110.795 74.705 114.231 75.224 117.725C75.2526 117.911 75.1954 118.097 75.0669 118.236C74.9478 118.36 74.7859 118.431 74.6193 118.431L74.6241 118.417ZM56.4263 109.821L56.5644 109.864C59.5497 110.971 62.3256 112.308 64.8395 113.84C66.2441 114.694 67.4916 115.391 69.3723 116.217C70.7721 116.832 72.3481 117 73.8908 117.124C73.3337 114.059 72.191 111.062 70.5579 108.418C68.8152 105.592 66.4679 103.086 63.7682 101.163C62.2589 100.929 60.7591 100.953 59.3021 101.244C59.0307 101.296 58.3737 101.635 57.3595 102.246C57.2357 102.323 57.1691 102.361 57.1214 102.385C56.6596 102.848 55.1312 106.084 55.0407 106.804C54.9836 107.244 55.155 107.63 55.3931 108.17L55.4312 108.26C55.6788 108.828 56.0168 109.348 56.4311 109.816L56.4263 109.821Z" fill="#408F95"/>
<path d="M52.5888 77.2789C52.5078 77.2789 52.4317 77.2646 52.3507 77.2312C52.0365 77.0975 51.8936 76.7396 52.0222 76.4246C52.2365 75.9091 52.4936 75.4127 52.7792 74.9449C53.3316 74.0524 54.46 72.21 56.4788 71.5943C56.7645 71.5084 56.9311 71.4845 57.1073 71.4607C57.2025 71.4464 57.3073 71.4368 57.4549 71.4082C58.7833 71.1457 59.5594 70.4297 60.6307 69.4322C61.2211 68.8785 61.8924 68.258 62.778 67.5994C63.9017 66.7641 64.6064 66.3966 65.1206 66.1293C65.6729 65.8429 66.0109 65.6663 66.568 65.0745C67.406 64.1819 68.0536 62.6784 67.4822 61.4709C67.3108 61.1034 66.9299 60.7549 66.6252 60.8074C66.3585 60.8552 66.1062 61.1559 65.8395 61.4757C65.7729 61.5568 65.7062 61.6332 65.6396 61.7143C64.8778 62.5878 63.8969 63.151 62.9447 63.6951C62.4495 63.9767 61.9829 64.2487 61.5448 64.5542C60.7687 65.1031 60.0307 65.8191 59.3118 66.5111C57.7786 68.0003 56.1931 69.5372 53.9791 69.7376C53.6506 69.7663 53.3458 69.5181 53.3125 69.184C53.2839 68.8451 53.5315 68.5444 53.8696 68.5158C55.6551 68.3535 57.0168 67.0314 58.4643 65.6281C59.2118 64.9026 59.9879 64.1533 60.8402 63.5519C61.3258 63.213 61.8353 62.9171 62.3352 62.6307C63.2351 62.1152 64.0874 61.6236 64.7159 60.9077C64.7778 60.8361 64.8349 60.7645 64.8968 60.6929C65.2587 60.2586 65.7062 59.7192 66.4157 59.5999C67.3917 59.4281 68.2297 60.1822 68.5916 60.9506C69.4058 62.688 68.6106 64.6974 67.4584 65.9241C66.7585 66.6639 66.2871 66.9121 65.6872 67.2223C65.1825 67.4848 64.554 67.8094 63.5113 68.5921C62.6828 69.2079 62.0353 69.8092 61.4687 70.339C60.3402 71.3891 59.3689 72.2912 57.6977 72.6205C57.5168 72.6539 57.3882 72.673 57.2739 72.6873C57.1216 72.7064 57.0311 72.7207 56.8406 72.778C55.2694 73.2553 54.3362 74.7731 53.8363 75.5893C53.5791 76.0093 53.3506 76.4532 53.1601 76.9066C53.0602 77.1405 52.8364 77.2837 52.5935 77.2837L52.5888 77.2789Z" fill="#408F95"/>
<path d="M109.982 154.577C108.315 154.577 106.649 154.41 105.011 154.076C103.764 153.818 102.021 153.307 101.264 151.809C100.892 151.069 100.854 150.229 100.826 149.551C100.707 146.893 100.745 144.139 102.568 142.268C102.964 141.862 103.168 141.752 104.159 141.232C104.544 141.031 105.059 140.755 105.768 140.373C106.706 139.867 107.511 139.413 108.211 139.017C111.115 137.38 112.439 136.636 114.281 137.046C114.638 137.127 114.995 137.285 115.653 137.576C118.69 138.917 121.309 140.912 123.218 143.342C125.07 145.695 124.989 146.807 124.966 147.174C124.894 148.177 124.371 149.169 123.394 150.133C122.057 151.46 120.252 152.491 117.881 153.288C115.324 154.147 112.653 154.577 109.972 154.577H109.982ZM113.343 138.168C112.22 138.168 111.067 138.817 108.815 140.086C108.106 140.487 107.296 140.941 106.354 141.451C105.639 141.838 105.116 142.115 104.73 142.315C103.744 142.836 103.697 142.864 103.449 143.122C101.969 144.645 101.945 147.107 102.054 149.494C102.083 150.11 102.111 150.744 102.364 151.25C102.754 152.028 103.673 152.544 105.259 152.864C109.33 153.699 113.567 153.436 117.505 152.114C119.695 151.379 121.342 150.444 122.542 149.25C123.294 148.501 123.704 147.771 123.752 147.079C123.794 146.43 123.271 145.37 122.266 144.091C120.476 141.819 118.024 139.953 115.167 138.688C114.581 138.43 114.262 138.287 114.019 138.234C113.791 138.182 113.567 138.158 113.343 138.158V138.168Z" fill="#408F95"/>
</g>
<defs>
<clipPath id="clip0_1617_12371">
<rect width="194" height="181" fill="white"/>
</clipPath>
</defs>
</svg>
